0
SECTION
2
HEADER
9
$INSUNITS
70
4
9
$ACADVER
1
AC1014
9
$HANDSEED
5
FFFF
0
ENDSEC
0
SECTION
2
TABLES
0
TABLE
2
VPORT
5
8
100
AcDbSymbolTable
0
ENDTAB
0
TABLE
2
LTYPE
5
5
100
AcDbSymbolTable
0
LTYPE
5
14
100
AcDbSymbolTableRecord
100
AcDbLinetypeTableRecord
2
BYBLOCK
70
0
0
LTYPE
5
15
100
AcDbSymbolTableRecord
100
AcDbLinetypeTableRecord
2
BYLAYER
70
0
0
ENDTAB
0
TABLE
2
LAYER
5
2
100
AcDbSymbolTable
70
2
0
LAYER
5
50
100
AcDbSymbolTableRecord
100
AcDbLayerTableRecord
2
0
70
0
6
CONTINUOUS
0
ENDTAB
0
TABLE
2
STYLE
5
3
100
AcDbSymbolTable
70
1
0
STYLE
5
11
100
AcDbSymbolTableRecord
100
AcDbTextStyleTableRecord
2
STANDARD
70
0
0
ENDTAB
0
TABLE
2
VIEW
5
6
100
AcDbSymbolTable
70
0
0
ENDTAB
0
TABLE
2
UCS
5
7
100
AcDbSymbolTable
70
0
0
ENDTAB
0
TABLE
2
APPID
5
9
100
AcDbSymbolTable
70
2
0
APPID
5
12
100
AcDbSymbolTableRecord
100
AcDbRegAppTableRecord
2
ACAD
70
0
0
ENDTAB
0
TABLE
2
DIMSTYLE
5
A
100
AcDbSymbolTable
70
1
0
ENDTAB
0
TABLE
2
BLOCK_RECORD
5
1
100
AcDbSymbolTable
70
1
0
BLOCK_RECORD
5
1F
100
AcDbSymbolTableRecord
100
AcDbBlockTableRecord
2
*MODEL_SPACE
0
BLOCK_RECORD
5
1B
100
AcDbSymbolTableRecord
100
AcDbBlockTableRecord
2
*PAPER_SPACE
0
ENDTAB
0
ENDSEC
0
SECTION
2
BLOCKS
0
BLOCK
5
20
100
AcDbEntity
100
AcDbBlockBegin
2
*MODEL_SPACE
0
ENDBLK
5
21
100
AcDbEntity
100
AcDbBlockEnd
0
BLOCK
5
1C
100
AcDbEntity
100
AcDbBlockBegin
2
*PAPER_SPACE
0
ENDBLK
5
1D
100
AcDbEntity
100
AcDbBlockEnd
0
ENDSEC
0
SECTION
2
ENTITIES
0
ARC
5
100
100
AcDbEntity
8
0
100
AcDbCircle
10
2577.8686101573385
20
-257.78873820615416
30
1.3068191103282149e-36
40
1.6375000000003659
210
-1.4921887212726004e-24
220
-6.6558891887856955e-24
230
1
100
AcDbArc
50
1.4000005799996362
51
181.40000057999961
0
LINE
5
101
100
AcDbEntity
8
0
100
AcDbLine
10
2579.5056213464504
20
-257.74873049785788
30
2.7090165061088561e-24
11
2590.863696080577
21
-268.56487867232875
31
6.6174449004242214e-23
0
LINE
5
102
100
AcDbEntity
8
0
100
AcDbLine
10
2590.863696080577
20
-268.56487867232875
30
6.6174449004242214e-23
11
2603.2768477358622
21
-255.52978504079502
31
-3.3087224502121107e-23
0
LINE
5
103
100
AcDbEntity
8
0
100
AcDbLine
10
2603.2768477358622
20
-255.52978504079502
30
-3.3087224502121107e-23
11
2591.9187730017352
21
-244.71363686632418
31
0
0
ARC
5
104
100
AcDbEntity
8
0
100
AcDbCircle
10
2591.8787652934402
20
-243.07662567721223
30
4.5045310865494689e-37
40
1.63749999999999
210
-1.8155460406538182e-24
220
6.575049858940692e-24
230
1
100
AcDbArc
50
91.400000580033861
51
271.40000057995405
0
LINE
5
105
100
AcDbEntity
8
0
100
AcDbLine
10
2591.838757585143
20
-241.43961448810057
30
-1.0836066024446647e-23
11
2600.9486521082499
21
-231.87328263461711
31
-6.6174449004242214e-23
0
ARC
5
106
100
AcDbEntity
8
0
100
AcDbCircle
10
2602.585663297361
20
-231.83327492632131
30
0
40
1.6375000000003399
210
0
220
-0
230
1
100
AcDbArc
50
1.4000005799629258
51
181.4000005799835
0
LINE
5
107
100
AcDbEntity
8
0
100
AcDbLine
10
2604.2226744864729
20
-231.79326721802607
30
0
11
2615.5807492205977
21
-242.60941539249643
31
7.1054273576010019e-14
0
LINE
5
108
100
AcDbEntity
8
0
100
AcDbLine
10
2615.5807492205977
20
-242.60941539249643
30
7.1054273576010019e-14
11
2627.9939008758847
21
-229.57432176096231
31
-3.3087224502121107e-23
0
LINE
5
109
100
AcDbEntity
8
0
100
AcDbLine
10
2627.9939008758847
20
-229.57432176096231
30
-3.3087224502121107e-23
11
2616.6358261417581
21
-218.75817358649076
31
7.105427350983557e-14
0
ARC
5
110
100
AcDbEntity
8
0
100
AcDbCircle
10
2616.5958184334618
20
-217.12116239737909
30
3.9351510103699234e-37
40
1.63749999999999
210
-1.6538673809658595e-24
220
-4.041966492171808e-26
230
1
100
AcDbArc
50
91.400000580017959
51
271.40000058000203
0
LINE
5
111
100
AcDbEntity
8
0
100
AcDbLine
10
2616.555810725165
20
-215.48415120826743
30
-2.0694032788515103e-36
11
2633.8716230302516
21
-197.30075661429692
31
7.1054273443661121e-14
0
SPLINE
5
112
100
AcDbEntity
8
0
100
AcDbSpline
70
0
71
3
72
8
73
4
74
0
42
0.000000001
43
0.0000000001
44
0.0000000001
40
0.49060717287504951
40
0.49060717287504951
40
0.49060717287504951
40
0.49060717287504951
40
0.5040271650966347
40
0.5040271650966347
40
0.5040271650966347
40
0.5040271650966347
10
2633.8716230302825
20
-197.30075661426909
30
0
10
2105.1132045919376
20
-231.09580638994976
30
0
10
1716.5466582294202
20
-69.934917967400978
30
0
10
1468.1719839427208
20
286.18190865335396
30
0
0
LINE
5
113
100
AcDbEntity
8
0
100
AcDbLine
10
1468.1719839427208
20
286.18190865335396
30
0
11
1505.5446335071554
21
-536.82755852820105
31
8.4703294725430034e-21
0
LINE
5
114
100
AcDbEntity
8
0
100
AcDbLine
10
1505.5446335071554
20
-536.82755852820105
30
8.4703294725430034e-21
11
2310.544633507156
21
-536.82755037909658
31
0
0
LINE
5
115
100
AcDbEntity
8
0
100
AcDbLine
10
2310.544633507156
20
-536.82755037909658
30
0
11
2329.0610675680132
21
-517.38337871278031
31
7.1054273443661121e-14
0
ARC
5
116
100
AcDbEntity
8
0
100
AcDbCircle
10
2330.6980787571247
20
-517.34337100448226
30
-5.7167596358349529e-38
40
1.6375000000000877
210
-1.6538673809654907e-24
220
-4.0419664924121128e-26
230
1
100
AcDbArc
50
1.4000005800100506
51
181.40000058006157
0
LINE
5
117
100
AcDbEntity
8
0
100
AcDbLine
10
2332.3350899462362
20
-517.30336329618569
30
2.7090165061111659e-24
11
2343.6931646803628
21
-528.11951147065747
31
1.9852334701272664e-22
0
LINE
5
118
100
AcDbEntity
8
0
100
AcDbLine
10
2343.6931646803628
20
-528.11951147065747
30
1.9852334701272664e-22
11
2356.1063163356489
21
-515.08441783912383
31
-3.3087224502121107e-23
0
LINE
5
119
100
AcDbEntity
8
0
100
AcDbLine
10
2356.1063163356489
20
-515.08441783912383
30
-3.3087224502121107e-23
11
2344.7482416015218
21
-504.268269664652
31
-6.6174449004242214e-23
0
ARC
5
120
100
AcDbEntity
8
0
100
AcDbCircle
10
2344.7082338932278
20
-502.63125847554022
30
-5.8453293304561406e-37
40
1.6375000000000828
210
-1.6538673809654277e-24
220
-4.0419664921152637e-26
230
1
100
AcDbArc
50
91.400000580001944
51
271.40000057992245
0
LINE
5
121
100
AcDbEntity
8
0
100
AcDbLine
10
2344.6682261849314
20
-500.99424728642845
30
-3.0113875135928735e-36
11
2353.7781207080357
21
-491.42791543294629
31
-3.3087224502121107e-23
0
ARC
5
122
100
AcDbEntity
8
0
100
AcDbCircle
10
2355.4151318971476
20
-491.38790772464972
30
7.1054273576010019e-14
40
1.6375000000000497
210
-3.1460596945533459e-24
220
-6.6963038334534333e-24
230
1
100
AcDbArc
50
1.4000005799538129
51
181.40000058000953
0
LINE
5
123
100
AcDbEntity
8
0
100
AcDbLine
10
2357.0521430862595
20
-491.34790001635474
30
7.1054273581428054e-14
11
2368.4102178203839
21
-502.16404819082516
31
6.6174449004242214e-23
0
LINE
5
124
100
AcDbEntity
8
0
100
AcDbLine
10
2368.4102178203839
20
-502.16404819082516
30
6.6174449004242214e-23
11
2380.82336947567
21
-489.12895455929083
31
7.1054273542922794e-14
0
LINE
5
125
100
AcDbEntity
8
0
100
AcDbLine
10
2380.82336947567
20
-489.12895455929083
30
7.1054273542922794e-14
11
2369.4652947415434
21
-478.31280638481923
31
-6.6174449004242214e-23
0
ARC
5
126
100
AcDbEntity
8
0
100
AcDbCircle
10
2369.4252870332489
20
-476.67579519570671
30
3.3795462586140766e-37
40
1.6374999999998558
210
1.6167865968348584e-25
220
-6.6154695238628723e-24
230
1
100
AcDbArc
50
91.400000579986241
51
271.40000057993768
0
LINE
5
127
100
AcDbEntity
8
0
100
AcDbLine
10
2369.385279324953
20
-475.03878400659517
30
1.0836066024444661e-23
11
2378.4951738480559
21
-465.47245215311409
31
0
0
ARC
5
128
100
AcDbEntity
8
0
100
AcDbCircle
10
2380.1321850371683
20
-465.43244444481718
30
0
40
1.6375000000000721
210
-1.6538673809654826e-24
220
-4.0419664923663741e-26
230
1
100
AcDbArc
50
1.4000005799876598
51
181.40000058002124
0
LINE
5
129
100
AcDbEntity
8
0
100
AcDbLine
10
2381.7691962262802
20
-465.39243673652123
30
2.7090165061111652e-24
11
2393.127270960405
21
-476.20858491099216
31
6.6174449004242214e-23
0
LINE
5
130
100
AcDbEntity
8
0
100
AcDbLine
10
2393.127270960405
20
-476.20858491099216
30
6.6174449004242214e-23
11
2405.540422615692
21
-463.17349127945766
31
-9.9261673506363321e-23
0
LINE
5
131
100
AcDbEntity
8
0
100
AcDbLine
10
2405.540422615692
20
-463.17349127945766
30
-9.9261673506363321e-23
11
2394.1823478815659
21
-452.35734310498674
31
-6.6174449004242214e-23
0
ARC
5
132
100
AcDbEntity
8
0
100
AcDbCircle
10
2394.14234017327
20
-450.72033191587457
30
-1.3247270320790232e-37
40
1.6374999999999407
210
-1.6538673809654773e-24
220
-4.0419664921869654e-26
230
1
100
AcDbArc
50
91.4000005800021
51
271.40000057998571
0
LINE
5
133
100
AcDbEntity
8
0
100
AcDbLine
10
2394.1023324649736
20
-449.08332072676296
30
-1.3932919890371477e-36
11
2403.2122269880783
21
-439.51698887328172
31
-3.3087224502121107e-23
0
ARC
5
134
100
AcDbEntity
8
0
100
AcDbCircle
10
2404.8492381771898
20
-439.47698116498441
30
-2.8928181289767232e-38
40
1.6375000000000721
210
-1.6538673809655019e-24
220
-4.0419664923613042e-26
230
1
100
AcDbArc
50
1.400000579985837
51
181.40000058003582
0
LINE
5
135
100
AcDbEntity
8
0
100
AcDbLine
10
2406.4862493663018
20
-439.43697345668852
30
2.7090165061111659e-24
11
2417.844324100427
21
-450.25312163115927
31
6.6174449004242214e-23
0
LINE
5
136
100
AcDbEntity
8
0
100
AcDbLine
10
2417.844324100427
20
-450.25312163115927
30
6.6174449004242214e-23
11
2430.2574757557122
21
-437.21802799962472
31
7.1054273476748345e-14
0
LINE
5
137
100
AcDbEntity
8
0
100
AcDbLine
10
2430.2574757557122
20
-437.21802799962472
30
7.1054273476748345e-14
11
2418.8994010215865
21
-426.40187982515329
31
-1.3234889800848443e-22
0
ARC
5
138
100
AcDbEntity
8
0
100
AcDbCircle
10
2418.8593933132911
20
-424.76486863604146
30
7.1054273576010019e-14
40
1.6375000000000048
210
0
220
0
230
1
100
AcDbArc
50
91.400000579986084
51
271.40000057997008
0
LINE
5
139
100
AcDbEntity
8
0
100
AcDbLine
10
2418.8193856049952
20
-423.12785744692974
30
7.1054273576010019e-14
11
2427.9292801280994
21
-413.56152559344815
31
-3.3087224502121107e-23
0
ARC
5
140
100
AcDbEntity
8
0
100
AcDbCircle
10
2429.5662913172118
20
-413.52151788515067
30
-2.40379411193542e-37
40
1.6375000000000601
210
-1.6538673809656457e-24
220
-4.0419664923520466e-26
230
1
100
AcDbArc
50
1.4000005799702158
51
181.40000058004102
0
LINE
5
141
100
AcDbEntity
8
0
100
AcDbLine
10
2431.2033025063233
20
-413.48151017685524
30
2.7090165061111659e-24
11
2442.5613772404486
21
-424.29765835132616
31
7.1054273642184468e-14
0
LINE
5
142
100
AcDbEntity
8
0
100
AcDbLine
10
2442.5613772404486
20
-424.29765835132616
30
7.1054273642184468e-14
11
2454.9745288957347
21
-411.26256471979195
31
-3.3087224502121107e-23
0
LINE
5
143
100
AcDbEntity
8
0
100
AcDbLine
10
2454.9745288957347
20
-411.26256471979195
30
-3.3087224502121107e-23
11
2443.6164541616081
21
-400.44641654532029
31
7.105427350983557e-14
0
ARC
5
144
100
AcDbEntity
8
0
100
AcDbCircle
10
2443.5764464533117
20
-398.80940535620869
30
-3.0948562205243038e-37
40
1.6375000000000481
210
-3.3077347619310813e-24
220
-8.0839329844571544e-26
230
1
100
AcDbArc
50
91.400000579938265
51
271.40000058000209
0
LINE
5
145
100
AcDbEntity
8
0
100
AcDbLine
10
2443.5364387450172
20
-397.17239416709685
30
3.2382653802714874e-36
11
2452.6463332681219
21
-387.60606231361442
31
7.1054273542922794e-14
0
ARC
5
146
100
AcDbEntity
8
0
100
AcDbCircle
10
2454.2833444572334
20
-387.56605460531836
30
9.7345625927470684e-38
40
1.6375000000000619
210
-1.4921887212770927e-24
220
-6.6558891887846802e-24
230
1
100
AcDbArc
50
1.4000005799722985
51
181.40000057999205
0
LINE
5
147
100
AcDbEntity
8
0
100
AcDbLine
10
2455.9203556463449
20
-387.52604689702287
30
2.7090165061090978e-24
11
2467.2784303804697
21
-398.34219507149351
31
1.9852334701272664e-22
0
LINE
5
148
100
AcDbEntity
8
0
100
AcDbLine
10
2467.2784303804697
20
-398.34219507149351
30
1.9852334701272664e-22
11
2479.6915820357563
21
-385.30710143995964
31
-3.3087224502121107e-23
0
LINE
5
149
100
AcDbEntity
8
0
100
AcDbLine
10
2479.6915820357563
20
-385.30710143995964
30
-3.3087224502121107e-23
11
2468.3335073016297
21
-374.49095326548724
31
-1.3234889800848443e-22
0
ARC
5
150
100
AcDbEntity
8
0
100
AcDbCircle
10
2468.2934995933347
20
-372.85394207637535
30
7.429491639181489e-37
40
1.637499999999906
210
-1.492188721277566e-24
220
-6.6558891887845009e-24
230
1
100
AcDbArc
50
91.400000579954366
51
271.40000057995411
0
LINE
5
151
100
AcDbEntity
8
0
100
AcDbLine
10
2468.2534918850397
20
-371.21693088726374
30
1.0836066024446268e-23
11
2477.363386408143
21
-361.65059903378227
31
-3.3087224502121107e-23
0
ARC
5
152
100
AcDbEntity
8
0
100
AcDbCircle
10
2479.000397597255
20
-361.61059132548593
30
7.1054273576010019e-14
40
1.6375000000000652
210
-1.6538642398536496e-24
220
-4.0421997610021566e-26
230
1
100
AcDbArc
50
1.4000005799759436
51
181.40000058000172
0
LINE
5
153
100
AcDbEntity
8
0
100
AcDbLine
10
2480.6374087863669
20
-361.57058361719032
30
7.105427357871903e-14
11
2491.9954835204908
21
-372.38673179166074
31
7.1054273642184468e-14
0
LINE
5
154
100
AcDbEntity
8
0
100
AcDbLine
10
2491.9954835204908
20
-372.38673179166074
30
7.1054273642184468e-14
11
2504.4086351757774
21
-359.3516381601267
31
-3.3087224502121107e-23
0
LINE
5
155
100
AcDbEntity
8
0
100
AcDbLine
10
2504.4086351757774
20
-359.3516381601267
30
-3.3087224502121107e-23
11
2493.0505604416517
21
-348.5354899856552
31
7.105427350983557e-14
0
ARC
5
156
100
AcDbEntity
8
0
100
AcDbCircle
10
2493.0105527333553
20
-346.8984787965436
30
-3.5907678997774564e-37
40
1.6374999999999407
210
-3.3077347619308969e-24
220
-8.0839329843707212e-26
230
1
100
AcDbArc
50
91.400000580002043
51
271.40000058000209
0
LINE
5
157
100
AcDbEntity
8
0
100
AcDbLine
10
2492.970545025059
20
-345.26146760743194
30
-2.9309493780346572e-36
11
2502.0804395481637
21
-335.69513575395001
31
0
0
ARC
5
158
100
AcDbEntity
8
0
100
AcDbCircle
10
2503.7174507372761
20
-335.65512804565265
30
-1.8344140357558745e-37
40
1.6375000000000497
210
-1.6538673809656141e-24
220
-4.0419664923822966e-26
230
1
100
AcDbArc
50
1.400000579954334
51
181.40000058003713
0
LINE
5
159
100
AcDbEntity
8
0
100
AcDbLine
10
2505.3544619263876
20
-335.61512033735767
30
2.7090165061111659e-24
11
2516.7125366605119
21
-346.43126851182797
31
6.6174449004242214e-23
0
LINE
5
160
100
AcDbEntity
8
0
100
AcDbLine
10
2516.7125366605119
20
-346.43126851182797
30
6.6174449004242214e-23
11
2529.1256883157989
21
-333.39617488029387
31
-9.9261673506363321e-23
0
LINE
5
161
100
AcDbEntity
8
0
100
AcDbLine
10
2529.1256883157989
20
-333.39617488029387
30
-9.9261673506363321e-23
11
2517.7676135816723
21
-322.58002670582238
31
-1.3234889800848443e-22
0
ARC
5
162
100
AcDbEntity
8
0
100
AcDbCircle
10
2517.7276058733773
20
-320.94301551671049
30
-1.4785514881436585e-37
40
1.6375000000001538
210
-1.6538673809656004e-24
220
-4.0419664922180299e-26
230
1
100
AcDbArc
50
91.400000580001887
51
271.40000057995411
0
LINE
5
163
100
AcDbEntity
8
0
100
AcDbLine
10
2517.687598165081
20
-319.30600432759866
30
-8.9643440417356773e-37
11
2526.7974926881852
21
-309.73967247411611
31
-6.6174449004242214e-23
0
ARC
5
164
100
AcDbEntity
8
0
100
AcDbCircle
10
2528.4345038772976
20
-309.69966476581936
30
2.957102976287317e-37
40
1.6375000000000541
210
-1.8155460406586381e-24
220
6.5750498589389721e-24
230
1
100
AcDbArc
50
1.4000005799600614
51
181.40000058001527
0
LINE
5
165
100
AcDbEntity
8
0
100
AcDbLine
10
2530.0715150664096
20
-309.65965705752421
30
2.7090165061234304e-24
11
2541.4295898005339
21
-320.4758052319952
31
1.3234889800848443e-22
0
LINE
5
166
100
AcDbEntity
8
0
100
AcDbLine
10
2541.4295898005339
20
-320.4758052319952
30
1.3234889800848443e-22
11
2553.8427414558209
21
-307.44071160046099
31
7.1054273542922794e-14
0
LINE
5
167
100
AcDbEntity
8
0
100
AcDbLine
10
2553.8427414558209
20
-307.44071160046099
30
7.1054273542922794e-14
11
2542.4846667216939
21
-296.62456342598881
31
-6.6174449004242214e-23
0
ARC
5
168
100
AcDbEntity
8
0
100
AcDbCircle
10
2542.4446590133989
20
-294.98755223687698
30
7.1054273576010019e-14
40
1.6375000000000897
210
0
220
0
230
1
100
AcDbArc
50
91.400000580001944
51
271.40000057995417
0
LINE
5
169
100
AcDbEntity
8
0
100
AcDbLine
10
2542.4046513051026
20
-293.3505410477652
30
7.1054273576010019e-14
11
2551.5145458282068
21
-283.78420919428299
31
-6.6174449004242214e-23
0
ARC
5
170
100
AcDbEntity
8
0
100
AcDbCircle
10
2553.1515570173187
20
-283.74420148598705
30
2.2958874039497803e-40
40
1.6375000000000739
210
-1.6538673809655107e-24
220
-4.0419664922449825e-26
230
1
100
AcDbArc
50
1.4000005799897424
51
181.40000057998765
0
LINE
5
171
100
AcDbEntity
8
0
100
AcDbLine
10
2554.7885682064307
20
-283.70419377769105
30
2.7090165061111659e-24
11
2566.1466429405555
21
-294.52034195216214
31
6.6174449004242214e-23
0
LINE
5
172
100
AcDbEntity
8
0
100
AcDbLine
10
2566.1466429405555
20
-294.52034195216214
30
6.6174449004242214e-23
11
2578.5597945958407
21
-281.48524832062753
31
-3.3087224502121107e-23
0
LINE
5
173
100
AcDbEntity
8
0
100
AcDbLine
10
2578.5597945958407
20
-281.48524832062753
30
-3.3087224502121107e-23
11
2567.2017198617141
21
-270.66910014615655
31
-6.6174449004242214e-23
0
ARC
5
174
100
AcDbEntity
8
0
100
AcDbCircle
10
2567.1617121534196
20
-269.03208895704478
30
3.5333707146787119e-37
40
1.6375000000001676
210
-1.6538673809659333e-24
220
-4.0419664922568275e-26
230
1
100
AcDbArc
50
91.400000580033719
51
271.40000057993825
0
LINE
5
175
100
AcDbEntity
8
0
100
AcDbLine
10
2567.1217044451223
20
-267.39507776793295
30
-7.1357156422377556e-37
11
2576.2315989682265
21
-257.82874591445045
31
-2.709016506106241e-24
0
ENDSEC
0
SECTION
2
OBJECTS
0
DICTIONARY
5
C
100
AcDbDictionary
3
ACAD_GROUP
350
D
3
ACAD_MLINESTYLE
350
17
0
DICTIONARY
5
D
100
AcDbDictionary
0
DICTIONARY
5
1A
330
C
100
AcDbDictionary
0
DICTIONARY
5
17
100
AcDbDictionary
0
ENDSEC
0
EOF
