0
SECTION
2
HEADER
9
$INSUNITS
70
4
9
$ACADVER
1
AC1014
9
$HANDSEED
5
FFFF
0
ENDSEC
0
SECTION
2
TABLES
0
TABLE
2
VPORT
5
8
100
AcDbSymbolTable
0
ENDTAB
0
TABLE
2
LTYPE
5
5
100
AcDbSymbolTable
0
LTYPE
5
14
100
AcDbSymbolTableRecord
100
AcDbLinetypeTableRecord
2
BYBLOCK
70
0
0
LTYPE
5
15
100
AcDbSymbolTableRecord
100
AcDbLinetypeTableRecord
2
BYLAYER
70
0
0
ENDTAB
0
TABLE
2
LAYER
5
2
100
AcDbSymbolTable
70
2
0
LAYER
5
50
100
AcDbSymbolTableRecord
100
AcDbLayerTableRecord
2
0
70
0
6
CONTINUOUS
0
ENDTAB
0
TABLE
2
STYLE
5
3
100
AcDbSymbolTable
70
1
0
STYLE
5
11
100
AcDbSymbolTableRecord
100
AcDbTextStyleTableRecord
2
STANDARD
70
0
0
ENDTAB
0
TABLE
2
VIEW
5
6
100
AcDbSymbolTable
70
0
0
ENDTAB
0
TABLE
2
UCS
5
7
100
AcDbSymbolTable
70
0
0
ENDTAB
0
TABLE
2
APPID
5
9
100
AcDbSymbolTable
70
2
0
APPID
5
12
100
AcDbSymbolTableRecord
100
AcDbRegAppTableRecord
2
ACAD
70
0
0
ENDTAB
0
TABLE
2
DIMSTYLE
5
A
100
AcDbSymbolTable
70
1
0
ENDTAB
0
TABLE
2
BLOCK_RECORD
5
1
100
AcDbSymbolTable
70
1
0
BLOCK_RECORD
5
1F
100
AcDbSymbolTableRecord
100
AcDbBlockTableRecord
2
*MODEL_SPACE
0
BLOCK_RECORD
5
1B
100
AcDbSymbolTableRecord
100
AcDbBlockTableRecord
2
*PAPER_SPACE
0
ENDTAB
0
ENDSEC
0
SECTION
2
BLOCKS
0
BLOCK
5
20
100
AcDbEntity
100
AcDbBlockBegin
2
*MODEL_SPACE
0
ENDBLK
5
21
100
AcDbEntity
100
AcDbBlockEnd
0
BLOCK
5
1C
100
AcDbEntity
100
AcDbBlockBegin
2
*PAPER_SPACE
0
ENDBLK
5
1D
100
AcDbEntity
100
AcDbBlockEnd
0
ENDSEC
0
SECTION
2
ENTITIES
0
ARC
5
100
100
AcDbEntity
8
0
100
AcDbCircle
10
-1717.3737269150452
20
16.522089615163161
30
2.8421709430404007e-13
40
1.6375000000001314
210
-2.9428209550236964e-30
220
-5.1871893036949537e-17
230
1
100
AcDbArc
50
-134.99999999999724
51
45.000000000002814
0
LINE
5
101
100
AcDbEntity
8
0
100
AcDbLine
10
-1718.5316142692382
20
15.364202260970041
30
2.8415703249505452e-13
11
-1731.9000648524661
21
15.364202260970119
31
3.4767978888153544e-30
0
ARC
5
102
100
AcDbEntity
8
0
100
AcDbCircle
10
-1733.0579522066591
20
16.522089615163122
30
2.8421709430404007e-13
40
1.6375000000000419
210
-3.925231146709163e-17
220
-1.2619581569866305e-17
230
1
100
AcDbArc
50
135.00000000000037
51
315.00000000000017
0
LINE
5
103
100
AcDbEntity
8
0
100
AcDbLine
10
-1734.2158395608521
20
17.679976969356115
30
2.8418625660288445e-13
11
-1734.2158395608521
21
31.048427552584283
31
-2.8421709430404007e-13
0
ARC
5
104
100
AcDbEntity
8
0
100
AcDbCircle
10
-1733.0579522066591
20
32.206314906777358
30
2.8421709430404002e-13
40
1.6374999999998758
210
-7.8504622934186453e-17
220
2.6632729897234627e-17
230
1
100
AcDbArc
50
44.99999999999384
51
225.00000000000165
0
LINE
5
105
100
AcDbEntity
8
0
100
AcDbLine
10
-1731.9000648524661
20
33.364202260970117
30
2.8427715611302558e-13
11
-1718.5316142692384
21
33.364202260970245
31
-3.4767978888153544e-30
0
ARC
5
106
100
AcDbEntity
8
0
100
AcDbCircle
10
-1717.3737269150452
20
32.206314906777365
30
2.8421709430404007e-13
40
1.6375000000000137
210
-1.1775693440128763e-16
220
-1.2619581569852465e-17
230
1
100
AcDbArc
50
-44.999999999998778
51
135.00000000000881
0
LINE
5
107
100
AcDbEntity
8
0
100
AcDbLine
10
-1716.2158395608521
20
31.048427552584407
30
2.8433883151533692e-13
11
-1716.2158395608521
21
17.679976969356282
31
2.8427715611302563e-13
0
ARC
5
108
100
AcDbEntity
8
0
100
AcDbCircle
10
-1753.2153059817851
20
16.52208961516299
30
-4.9680932578792641e-30
40
1.6374999999998787
210
-1.2634100435180267e-31
220
-5.1871893036948637e-17
230
1
100
AcDbArc
50
-135.00000000000605
51
44.999999999994031
0
LINE
5
109
100
AcDbEntity
8
0
100
AcDbLine
10
-1754.3731933359782
20
15.364202260970227
30
-6.0061808985527615e-17
11
-1767.7416439192064
21
15.364202260970101
31
3.4767978888153544e-30
0
ARC
5
110
100
AcDbEntity
8
0
100
AcDbCircle
10
-1768.8995312733994
20
16.5220896151631
30
1.1285949474109202e-30
40
1.6375000000000404
210
-3.925231146709282e-17
220
-1.2619581569854655e-17
230
1
100
AcDbArc
50
135.00000000000037
51
315.00000000000028
0
LINE
5
111
100
AcDbEntity
8
0
100
AcDbLine
10
-1770.0574186275924
20
17.679976969356094
30
-3.0837701155649185e-17
11
-1770.0574186275926
21
31.048427552584261
31
9.8607613152626476e-31
0
ARC
5
112
100
AcDbEntity
8
0
100
AcDbCircle
10
-1768.8995312733994
20
32.20631490677728
30
-4.7454913829701491e-30
40
1.6374999999999633
210
-7.8504622934188832e-17
220
2.6632729897235558e-17
230
1
100
AcDbArc
50
44.999999999997009
51
224.99999999999463
0
LINE
5
113
100
AcDbEntity
8
0
100
AcDbLine
10
-1767.7416439192064
20
33.364202260970167
30
6.0061808985539103e-17
11
-1754.3731933359788
21
33.364202260970231
31
-3.4767978888153544e-30
0
ARC
5
114
100
AcDbEntity
8
0
100
AcDbCircle
10
-1753.2153059817851
20
32.206314906777351
30
1.2820915639785829e-29
40
1.6375000000000137
210
-1.177569344012772e-16
220
-1.2619581569849278e-17
230
1
100
AcDbArc
50
-44.999999999998778
51
135.00000000002004
0
LINE
5
115
100
AcDbEntity
8
0
100
AcDbLine
10
-1752.0574186275921
20
31.048427552584393
30
1.2173721129685234e-16
11
-1752.0574186275921
21
17.679976969355756
31
6.0061808985517668e-17
0
ARC
5
116
100
AcDbEntity
8
0
100
AcDbCircle
10
-1681.5321478483047
20
16.522089615163107
30
2.8421709430404007e-13
40
1.6375000000000073
210
-8.0087870807398816e-30
220
-5.1871893036952335e-17
230
1
100
AcDbArc
50
-135.00000000000156
51
44.999999999998415
0
LINE
5
117
100
AcDbEntity
8
0
100
AcDbLine
10
-1682.6900352024977
20
15.364202260970162
30
2.8415703249505452e-13
11
-1696.0584857857257
21
15.364202260970139
31
3.4767978888153635e-30
0
ARC
5
118
100
AcDbEntity
8
0
100
AcDbCircle
10
-1697.2163731399187
20
16.522089615163164
30
2.5403015966467641e-30
40
1.6375000000000484
210
-3.9252311467092931e-17
220
-1.2619581569855178e-17
230
1
100
AcDbArc
50
135.00000000000011
51
314.99999999999955
0
LINE
5
119
100
AcDbEntity
8
0
100
AcDbLine
10
-1698.3742604941117
20
17.679976969356169
30
-3.0837701155647158e-17
11
-1698.3742604941117
21
31.0484275525843
31
9.8607613152626476e-31
0
ARC
5
120
100
AcDbEntity
8
0
100
AcDbCircle
10
-1697.2163731399187
20
32.206314906777379
30
-1.0369206820580878e-29
40
1.6374999999998758
210
-7.8504622934191815e-17
220
2.6632729897230156e-17
230
1
100
AcDbArc
50
44.999999999993676
51
225.00000000000176
0
LINE
5
121
100
AcDbEntity
8
0
100
AcDbLine
10
-1696.0584857857257
20
33.364202260970131
30
6.0061808985546499e-17
11
-1682.6900352024982
21
33.364202260970266
31
-3.4767978888153635e-30
0
ARC
5
122
100
AcDbEntity
8
0
100
AcDbCircle
10
-1681.5321478483047
20
32.206314906777308
30
2.8421709430404007e-13
40
1.6375000000000295
210
-1.1775693440128802e-16
220
-1.2619581569852625e-17
230
1
100
AcDbArc
50
-44.999999999999289
51
135.00000000001251
0
LINE
5
123
100
AcDbEntity
8
0
100
AcDbLine
10
-1680.3742604941117
20
31.048427552584329
30
2.8433883151533692e-13
11
-1680.3742604941117
21
17.679976969356051
31
2.8427715611302558e-13
0
ARC
5
124
100
AcDbEntity
8
0
100
AcDbCircle
10
-1502.3242525146034
20
16.522089615163154
30
-3.3977728288503e-30
40
1.6374999999999291
210
-7.3955709864469857e-32
220
-5.1871893036948588e-17
230
1
100
AcDbArc
50
-135.00000000000432
51
44.999999999995687
0
LINE
5
125
100
AcDbEntity
8
0
100
AcDbLine
10
-1503.4821398687964
20
15.36420226097032
30
-6.0061808985529612e-17
11
-1516.8505904520243
21
15.364202260970233
31
3.4767978888153621e-30
0
ARC
5
126
100
AcDbEntity
8
0
100
AcDbCircle
10
-1518.0084778062176
20
16.522089615163139
30
-3.5648963270607736e-30
40
1.6375000000000202
210
-3.9252311467092296e-17
220
-1.2619581569853155e-17
230
1
100
AcDbArc
50
135.00000000000105
51
315.00000000000819
0
LINE
5
127
100
AcDbEntity
8
0
100
AcDbLine
10
-1519.1663651604106
20
17.679976969356105
30
-3.0837701155655373e-17
11
-1519.1663651604104
21
31.048427552584393
31
9.8607613152626476e-31
0
ARC
5
128
100
AcDbEntity
8
0
100
AcDbCircle
10
-1518.0084778062176
20
32.206314906777422
30
-5.438826162949554e-30
40
1.6374999999999509
210
-7.8504622934189276e-17
220
2.663272989723479e-17
230
1
100
AcDbArc
50
44.999999999996483
51
225.00000000000614
0
LINE
5
129
100
AcDbEntity
8
0
100
AcDbLine
10
-1516.8505904520246
20
33.364202260970288
30
6.0061808985540287e-17
11
-1503.4821398687964
21
33.364202260970359
31
-3.4767978888153621e-30
0
ARC
5
130
100
AcDbEntity
8
0
100
AcDbCircle
10
-1502.3242525146034
20
32.206314906777394
30
2.1108192190484105e-30
40
1.6375000000000326
210
-1.1775693440127856e-16
220
-1.261958156985358e-17
230
1
100
AcDbArc
50
-44.999999999999289
51
135.00000000000105
0
LINE
5
131
100
AcDbEntity
8
0
100
AcDbLine
10
-1501.1663651604104
20
31.048427552584414
30
1.2173721129683784e-16
11
-1501.1663651604104
21
17.679976969355987
31
6.0061808985522808e-17
0
LWPOLYLINE
5
132
100
AcDbEntity
8
0
100
AcDbPolyline
90
8
70
1
43
0.0
10
-1572.8495232938906
20
17.679976969356193
42
-0.99999999999999989
10
-1575.1652980022766
20
15.364202260970183
10
-1588.533748585505
20
15.364202260970178
42
-0.99999999999999989
10
-1590.849523293891
20
17.67997696935614
10
-1590.849523293891
20
31.048427552584389
42
-0.99999999999999989
10
-1588.533748585505
20
33.364202260970302
10
-1575.1652980022766
20
33.364202260970359
42
-0.99999999999999989
10
-1572.8495232938906
20
31.048427552584425
0
LWPOLYLINE
5
133
100
AcDbEntity
8
0
100
AcDbPolyline
90
8
70
1
43
0.0
10
-1644.5326814273712
20
17.679976969356055
42
-0.99999999999999989
10
-1646.8484561357573
20
15.364202260970185
10
-1660.2169067189855
20
15.364202260970149
42
-0.99999999999999989
10
-1662.5326814273715
20
17.679976969356126
10
-1662.5326814273715
20
31.048427552584368
42
-0.99999999999999989
10
-1660.2169067189855
20
33.364202260970259
10
-1646.8484561357573
20
33.364202260970316
42
-0.99999999999999989
10
-1644.5326814273712
20
31.04842755258435
0
LWPOLYLINE
5
134
100
AcDbEntity
8
0
100
AcDbPolyline
90
8
70
1
43
0.0
10
-1608.691102360631
20
17.679976969356076
42
-0.99999999999999989
10
-1611.006877069017
20
15.364202260970206
10
-1624.3753276522455
20
15.364202260970112
42
-0.99999999999999989
10
-1626.6911023606315
20
17.679976969356012
10
-1626.6911023606315
20
31.048427552584386
42
-0.99999999999999989
10
-1624.3753276522455
20
33.364202260970274
10
-1611.006877069017
20
33.36420226097033
42
-0.99999999999999989
10
-1608.691102360631
20
31.048427552584368
0
LWPOLYLINE
5
135
100
AcDbEntity
8
0
100
AcDbPolyline
90
8
70
1
43
0.0
10
-1537.0079442271506
20
17.679976969355963
42
-0.99999999999999989
10
-1539.3237189355366
20
15.364202260970298
10
-1552.6921695187648
20
15.364202260970188
42
-0.99999999999999989
10
-1555.0079442271508
20
17.679976969356147
10
-1555.0079442271508
20
31.04842755258445
42
-0.99999999999999989
10
-1552.6921695187648
20
33.364202260970302
10
-1539.3237189355366
20
33.36420226097038
42
-0.99999999999999989
10
-1537.0079442271506
20
31.048427552584442
0
ARC
5
136
100
AcDbEntity
8
0
100
AcDbCircle
10
-1466.4826734478629
20
16.522089615163242
30
3.9927372997482058e-31
40
1.6375000000000484
210
-1.2017802852976352e-31
220
-5.1871893036948662e-17
230
1
100
AcDbArc
50
-135.00000000000011
51
44.999999999999908
0
LINE
5
137
100
AcDbEntity
8
0
100
AcDbLine
10
-1467.6405608020559
20
15.364202260970238
30
-6.0061808985534703e-17
11
-1481.0090113852837
21
15.36420226097025
31
3.4767978888153621e-30
0
ARC
5
138
100
AcDbEntity
8
0
100
AcDbCircle
10
-1482.1668987394769
20
16.522089615163232
30
-1.2325951644078309e-31
40
1.6375000000000373
210
-3.9252311467092882e-17
220
6.5885041364334272e-17
230
1
100
AcDbArc
50
135.00000000000045
51
315.00000000000625
0
LINE
5
139
100
AcDbEntity
8
0
100
AcDbLine
10
-1483.3247860936699
20
17.679976969356222
30
-1.2173721129683673e-16
11
-1483.3247860936699
21
31.048427552584414
31
0
0
ARC
5
140
100
AcDbEntity
8
0
100
AcDbCircle
10
-1482.1668987394769
20
32.206314906777436
30
-1.363558400626163e-30
40
1.637499999999954
210
-3.9252311467094163e-17
220
-1.2619581569856846e-17
230
1
100
AcDbArc
50
44.99999999999666
51
225.00000000000037
0
LINE
5
141
100
AcDbEntity
8
0
100
AcDbLine
10
-1481.0090113852839
20
33.364202260970309
30
6.0061808985534814e-17
11
-1467.6405608020559
21
33.364202260970373
31
-1.1102230246251601e-15
0
ARC
5
142
100
AcDbEntity
8
0
100
AcDbCircle
10
-1466.4826734478629
20
32.206314906777493
30
4.768602542302796e-30
40
1.6375000000000166
210
-3.9252311467092808e-17
220
-1.2619581569852765e-17
230
1
100
AcDbArc
50
-44.999999999998835
51
135.00000000000315
0
LINE
5
143
100
AcDbEntity
8
0
100
AcDbLine
10
-1465.3247860936699
20
31.048427552584531
30
3.0837701155657672e-17
11
-1465.3247860936699
21
17.679976969356247
31
6.0061808985535492e-17
0
ARC
5
144
100
AcDbEntity
8
0
100
AcDbCircle
10
-1430.6410943811225
20
16.522089615163232
30
2.8421709430404007e-13
40
1.6374999999999995
210
-8.3046099201977596e-30
220
-5.1871893036952532e-17
230
1
100
AcDbArc
50
-135.00000000000185
51
44.999999999998245
0
LINE
5
145
100
AcDbEntity
8
0
100
AcDbLine
10
-1431.7989817353155
20
15.364202260970298
30
2.8415703249505452e-13
11
-1445.1674323185439
21
15.36420226097027
31
3.4767978888153614e-30
0
ARC
5
146
100
AcDbEntity
8
0
100
AcDbCircle
10
-1446.3253196727369
20
16.522089615163253
30
2.8421709430404007e-13
40
1.6375000000000373
210
-3.9252311467091538e-17
220
-1.2619581569866282e-17
230
1
100
AcDbArc
50
135.00000000000054
51
315.00000000000057
0
LINE
5
147
100
AcDbEntity
8
0
100
AcDbLine
10
-1447.4832070269299
20
17.67997696935624
30
2.8418625660288445e-13
11
-1447.4832070269294
21
31.048427552584428
31
9.8607613152626476e-31
0
ARC
5
148
100
AcDbEntity
8
0
100
AcDbCircle
10
-1446.3253196727369
20
32.206314906777472
30
2.8421709430404002e-13
40
1.637499999999926
210
-7.8504622934187538e-17
220
2.6632729897234066e-17
230
1
100
AcDbArc
50
44.999999999995616
51
225.00000000001211
0
LINE
5
149
100
AcDbEntity
8
0
100
AcDbLine
10
-1445.1674323185439
20
33.364202260970302
30
2.8427715611302558e-13
11
-1431.7989817353157
21
33.364202260970394
31
-3.4767978888153614e-30
0
ARC
5
150
100
AcDbEntity
8
0
100
AcDbCircle
10
-1430.6410943811225
20
32.206314906777493
30
2.8421709430404007e-13
40
1.6375000000000166
210
-1.1775693440128773e-16
220
-1.2619581569852532e-17
230
1
100
AcDbArc
50
-44.999999999998778
51
135.00000000000827
0
LINE
5
151
100
AcDbEntity
8
0
100
AcDbLine
10
-1429.4832070269294
20
31.048427552584535
30
2.8433883151533692e-13
11
-1429.4832070269294
21
17.679976969356169
31
2.8427715611302563e-13
0
LWPOLYLINE
5
152
100
AcDbEntity
8
0
100
AcDbPolyline
90
8
70
1
43
0.0
10
-1393.641627960189
20
17.679976969356289
42
-0.99999999999999989
10
-1395.957402668575
20
15.364202260970277
10
-1409.3258532518032
20
15.364202260970263
42
-0.99999999999999989
10
-1411.6416279601892
20
17.679976969356222
10
-1411.6416279601892
20
31.048427552584666
42
-0.99999999999999989
10
-1409.3258532518032
20
33.364202260970323
10
-1395.957402668575
20
33.364202260970487
42
-0.99999999999999989
10
-1393.641627960189
20
31.048427552584585
0
LWPOLYLINE
5
153
100
AcDbEntity
8
0
100
AcDbPolyline
90
8
70
1
43
0.0
10
-1375.800048893449
20
31.048427552584506
42
-0.99999999999999989
10
-1373.484274185063
20
33.364202260970416
10
-1360.1158236018346
20
33.364202260970465
42
-0.99999999999999989
10
-1357.8000488934485
20
31.048427552584513
10
-1357.8000488934485
20
17.679976969355991
42
-0.99999999999999989
10
-1360.1158236018346
20
15.364202260970421
10
-1373.484274185063
20
15.364202260970242
42
-0.99999999999999989
10
-1375.800048893449
20
17.679976969356154
0
ARC
5
154
100
AcDbEntity
8
0
100
AcDbCircle
10
-1430.6410943811225
20
431.5220896151655
30
3.5591185372276119e-30
40
1.6374999999998003
210
-3.92523114671044e-17
220
-1.2619581569860493e-17
230
1
100
AcDbArc
50
-135.00000000000844
51
44.999999999991559
0
LINE
5
155
100
AcDbEntity
8
0
100
AcDbLine
10
-1431.7989817353155
20
430.36420226097283
30
-6.0061808985545932e-17
11
-1445.1674323185432
21
430.36420226097266
31
3.4767978888153292e-30
0
ARC
5
156
100
AcDbEntity
8
0
100
AcDbCircle
10
-1446.3253196727369
20
431.5220896151655
30
-5.0728994735159792e-30
40
1.6375000000000515
210
-7.8504622934169974e-17
220
2.6632729897238996e-17
230
1
100
AcDbArc
50
135
51
315.00000000002109
0
LINE
5
157
100
AcDbEntity
8
0
100
AcDbLine
10
-1447.4832070269299
20
432.67997696935851
30
-1.2173721129682197e-16
11
-1447.4832070269292
21
448.36420226097266
31
0
0
LINE
5
158
100
AcDbEntity
8
0
100
AcDbLine
10
-1447.4832070269292
20
448.36420226097266
30
0
11
-1465.3247860936694
21
448.36420226097277
31
-1.1102230246251518e-15
0
LINE
5
159
100
AcDbEntity
8
0
100
AcDbLine
10
-1465.3247860936694
20
448.36420226097277
30
-1.1102230246251518e-15
11
-1465.3247860936699
21
432.67997696935856
31
0
0
ARC
5
160
100
AcDbEntity
8
0
100
AcDbCircle
10
-1466.4826734478627
20
431.5220896151655
30
2.6115610045890918e-30
40
1.6374999999998505
210
-3.9252311467103704e-17
220
-1.2619581569858199e-17
230
1
100
AcDbArc
50
-135.00000000000702
51
45.000000000007041
0
LINE
5
161
100
AcDbEntity
8
0
100
AcDbLine
10
-1467.6405608020557
20
430.36420226097277
30
-6.0061808985544329e-17
11
-1481.0090113852837
21
430.36420226097266
31
3.4767978888153299e-30
0
ARC
5
162
100
AcDbEntity
8
0
100
AcDbCircle
10
-1482.1668987394767
20
431.52208961516567
30
-1.8797076257219422e-30
40
1.6375000000000011
210
3.9252311467107685e-17
220
6.588504136433405e-17
230
1
100
AcDbArc
50
135.00000000000279
51
315
0
LINE
5
163
100
AcDbEntity
8
0
100
AcDbLine
10
-1483.3247860936697
20
432.67997696935856
30
-3.0837701155633661e-17
11
-1483.3247860936699
21
448.36420226097266
31
0
0
LINE
5
164
100
AcDbEntity
8
0
100
AcDbLine
10
-1483.3247860936699
20
448.36420226097266
30
0
11
-1501.1663651604104
21
448.36420226097277
31
1.1102230246251613e-15
0
LINE
5
165
100
AcDbEntity
8
0
100
AcDbLine
10
-1501.1663651604104
20
448.36420226097277
30
1.1102230246251613e-15
11
-1501.1663651604099
21
432.67997696935856
31
-2.8421709430404007e-13
0
ARC
5
166
100
AcDbEntity
8
0
100
AcDbCircle
10
-1502.3242525146031
20
431.5220896151655
30
2.6038572848115429e-30
40
1.6374999999998505
210
-3.9252311467103402e-17
220
-1.2619581569857906e-17
230
1
100
AcDbArc
50
-135.00000000000702
51
44.999999999995779
0
LINE
5
167
100
AcDbEntity
8
0
100
AcDbLine
10
-1503.4821398687961
20
430.36420226097277
30
-6.0061808985543652e-17
11
-1516.8505904520239
21
430.36420226097266
31
3.4767978888153299e-30
0
ARC
5
168
100
AcDbEntity
8
0
100
AcDbCircle
10
-1518.0084778062173
20
431.52208961516567
30
-2.8421709430404012e-13
40
1.6375000000000011
210
-7.8504622934149771e-17
220
2.6632729897233089e-17
230
1
100
AcDbArc
50
135.00000000000279
51
315.00000000001125
0
LINE
5
169
100
AcDbEntity
8
0
100
AcDbLine
10
-1519.1663651604104
20
432.67997696935856
30
-2.8433883151533692e-13
11
-1519.1663651604099
21
448.36420226097266
31
-2.8421709430404007e-13
0
LINE
5
170
100
AcDbEntity
8
0
100
AcDbLine
10
-1519.1663651604099
20
448.36420226097266
30
-2.8421709430404007e-13
11
-1537.0079442271503
21
448.36420226097277
31
-1.1102230246251518e-15
0
LINE
5
171
100
AcDbEntity
8
0
100
AcDbLine
10
-1537.0079442271503
20
448.36420226097277
30
-1.1102230246251518e-15
11
-1537.0079442271503
21
432.67997696935845
31
0
0
ARC
5
172
100
AcDbEntity
8
0
100
AcDbCircle
10
-1538.1658315813434
20
431.52208961516533
30
2.588449845256445e-30
40
1.6374999999998505
210
-3.925231146710342e-17
220
-1.2619581569857903e-17
230
1
100
AcDbArc
50
-135.00000000000844
51
45.000000000002814
0
LINE
5
173
100
AcDbEntity
8
0
100
AcDbLine
10
-1539.3237189355364
20
430.36420226097266
30
-6.0061808985543688e-17
11
-1552.6921695187643
21
430.36420226097266
31
1.1102230246251601e-15
0
ARC
5
174
100
AcDbEntity
8
0
100
AcDbCircle
10
-1553.8500568729573
20
431.5220896151655
30
2.8421709430404012e-13
40
1.6375000000000011
210
-7.8504622934204277e-17
220
2.663272989726036e-17
230
1
100
AcDbArc
50
135.00000000000142
51
315.00000000000421
0
LINE
5
175
100
AcDbEntity
8
0
100
AcDbLine
10
-1555.0079442271503
20
432.67997696935845
30
2.8409535709274328e-13
11
-1555.0079442271503
21
448.36420226097266
31
2.8421709430404007e-13
0
LINE
5
176
100
AcDbEntity
8
0
100
AcDbLine
10
-1555.0079442271503
20
448.36420226097266
30
2.8421709430404007e-13
11
-1572.8495232938908
21
448.3642022609726
31
2.8310687127941492e-13
0
LINE
5
177
100
AcDbEntity
8
0
100
AcDbLine
10
-1572.8495232938908
20
448.3642022609726
30
2.8310687127941492e-13
11
-1572.8495232938913
21
432.67997696935845
31
-2.8421709430404007e-13
0
ARC
5
178
100
AcDbEntity
8
0
100
AcDbCircle
10
-1574.0074106480836
20
431.52208961516533
30
2.588449845256445e-30
40
1.6374999999998505
210
-3.925231146710342e-17
220
-1.2619581569857903e-17
230
1
100
AcDbArc
50
-135.00000000000844
51
45.000000000019675
0
LINE
5
179
100
AcDbEntity
8
0
100
AcDbLine
10
-1575.1652980022766
20
430.36420226097266
30
-6.0061808985543688e-17
11
-1588.533748585505
21
430.36420226097266
31
1.1102230246251601e-15
0
ARC
5
180
100
AcDbEntity
8
0
100
AcDbCircle
10
-1589.6916359396978
20
431.5220896151655
30
-4.1638605397652039e-30
40
1.6375000000000011
210
-7.8504622934170849e-17
220
2.663272989723907e-17
230
1
100
AcDbArc
50
135.00000000000142
51
314.99999999999858
0
LINE
5
181
100
AcDbEntity
8
0
100
AcDbLine
10
-1590.8495232938908
20
432.67997696935845
30
-1.2173721129682024e-16
11
-1590.849523293891
21
448.36420226097266
31
0
0
LINE
5
182
100
AcDbEntity
8
0
100
AcDbLine
10
-1590.849523293891
20
448.36420226097266
30
0
11
-1608.6911023606312
21
448.3642022609726
31
-1.1102230246251518e-15
0
LINE
5
183
100
AcDbEntity
8
0
100
AcDbLine
10
-1608.6911023606312
20
448.3642022609726
30
-1.1102230246251518e-15
11
-1608.691102360631
21
432.67997696935845
31
-2.8421709430404007e-13
0
ARC
5
184
100
AcDbEntity
8
0
100
AcDbCircle
10
-1609.848989714824
20
431.52208961516533
30
2.588449845256445e-30
40
1.6374999999998505
210
-3.925231146710342e-17
220
-1.2619581569857903e-17
230
1
100
AcDbArc
50
-135.00000000000844
51
45.000000000002814
0
LINE
5
185
100
AcDbEntity
8
0
100
AcDbLine
10
-1611.006877069017
20
430.36420226097266
30
-6.0061808985543688e-17
11
-1624.3753276522452
21
430.36420226097266
31
1.1102230246251601e-15
0
ARC
5
186
100
AcDbEntity
8
0
100
AcDbCircle
10
-1625.5332150064385
20
431.5220896151655
30
-3.2894883450133988e-30
40
1.6375000000000011
210
-7.8504622934171046e-17
220
2.6632729897238485e-17
230
1
100
AcDbArc
50
135.00000000000142
51
315.00000000000983
0
LINE
5
187
100
AcDbEntity
8
0
100
AcDbLine
10
-1626.6911023606315
20
432.67997696935845
30
-1.2173721129681894e-16
11
-1626.6911023606312
21
448.36420226097266
31
0
0
LINE
5
188
100
AcDbEntity
8
0
100
AcDbLine
10
-1626.6911023606312
20
448.36420226097266
30
0
11
-1644.5326814273717
21
448.3642022609726
31
-1.1102230246251518e-15
0
LINE
5
189
100
AcDbEntity
8
0
100
AcDbLine
10
-1644.5326814273717
20
448.3642022609726
30
-1.1102230246251518e-15
11
-1644.5326814273717
21
432.67997696935845
31
0
0
ARC
5
190
100
AcDbEntity
8
0
100
AcDbCircle
10
-1645.6905687815643
20
431.5220896151655
30
1.6485960323954739e-30
40
1.6374999999999509
210
-3.9252311467102373e-17
220
-1.2619581569856447e-17
230
1
100
AcDbArc
50
-135.00000000000423
51
45.000000000009841
0
LINE
5
191
100
AcDbEntity
8
0
100
AcDbLine
10
-1646.8484561357573
20
430.36420226097266
30
-6.0061808985543516e-17
11
-1660.2169067189857
21
430.36420226097266
31
1.1102230246251601e-15
0
ARC
5
192
100
AcDbEntity
8
0
100
AcDbCircle
10
-1661.3747940731785
20
431.5220896151655
30
2.8421709430404012e-13
40
1.6375000000000011
210
-7.8504622934204277e-17
220
2.663272989726036e-17
230
1
100
AcDbArc
50
135.00000000000142
51
314.99999999999858
0
LINE
5
193
100
AcDbEntity
8
0
100
AcDbLine
10
-1662.5326814273715
20
432.67997696935845
30
2.8409535709274328e-13
11
-1662.5326814273717
21
448.36420226097255
31
-2.8421709430404007e-13
0
LINE
5
194
100
AcDbEntity
8
0
100
AcDbLine
10
-1662.5326814273717
20
448.36420226097255
30
-2.8421709430404007e-13
11
-1680.3742604941121
21
448.3642022609726
31
-2.8532731732866523e-13
0
LINE
5
195
100
AcDbEntity
8
0
100
AcDbLine
10
-1680.3742604941121
20
448.3642022609726
30
-2.8532731732866523e-13
11
-1680.3742604941117
21
432.67997696935845
31
0
0
ARC
5
196
100
AcDbEntity
8
0
100
AcDbCircle
10
-1681.5321478483047
20
431.5220896151655
30
1.6562997521730228e-30
40
1.6374999999999509
210
-3.9252311467102292e-17
220
-1.2619581569856389e-17
230
1
100
AcDbArc
50
-135.00000000000423
51
44.999999999998593
0
LINE
5
197
100
AcDbEntity
8
0
100
AcDbLine
10
-1682.6900352024977
20
430.36420226097266
30
-6.0061808985543356e-17
11
-1696.0584857857259
21
430.36420226097249
31
1.1102230246251601e-15
0
ARC
5
198
100
AcDbEntity
8
0
100
AcDbCircle
10
-1697.2163731399187
20
431.52208961516533
30
-5.0728994735159792e-30
40
1.6375000000000515
210
-7.8504622934170146e-17
220
2.6632729897239144e-17
230
1
100
AcDbArc
50
135
51
314.99999999999858
0
LINE
5
199
100
AcDbEntity
8
0
100
AcDbLine
10
-1698.3742604941117
20
432.67997696935834
30
-1.2173721129682234e-16
11
-1698.3742604941119
21
448.36420226097255
31
0
0
LINE
5
200
100
AcDbEntity
8
0
100
AcDbLine
10
-1698.3742604941119
20
448.36420226097255
30
0
11
-1716.2158395608524
21
448.3642022609726
31
-1.1102230246251518e-15
0
LINE
5
201
100
AcDbEntity
8
0
100
AcDbLine
10
-1716.2158395608524
20
448.3642022609726
30
-1.1102230246251518e-15
11
-1716.2158395608521
21
432.67997696935845
31
0
0
ARC
5
202
100
AcDbEntity
8
0
100
AcDbCircle
10
-1717.3737269150452
20
431.52208961516533
30
3.5591185372276119e-30
40
1.6374999999998003
210
-3.92523114671044e-17
220
-1.2619581569860493e-17
230
1
100
AcDbArc
50
-135.00000000000986
51
45.000000000002814
0
LINE
5
203
100
AcDbEntity
8
0
100
AcDbLine
10
-1718.5316142692382
20
430.36420226097272
30
-6.0061808985545932e-17
11
-1731.9000648524664
21
430.36420226097249
31
-2.8310687127941492e-13
0
ARC
5
204
100
AcDbEntity
8
0
100
AcDbCircle
10
-1733.0579522066594
20
431.5220896151655
30
4.5451946687538766e-31
40
1.6375000000000515
210
-7.850462293417197e-17
220
2.6632729897236189e-17
230
1
100
AcDbArc
50
135
51
315
0
LINE
5
205
100
AcDbEntity
8
0
100
AcDbLine
10
-1734.2158395608524
20
432.67997696935851
30
-1.2173721129681548e-16
11
-1734.2158395608521
21
448.36420226097255
31
2.8421709430404007e-13
0
LINE
5
206
100
AcDbEntity
8
0
100
AcDbLine
10
-1734.2158395608521
20
448.36420226097255
30
2.8421709430404007e-13
11
-1752.0574186275926
21
448.3642022609726
31
2.8310687127941492e-13
0
LINE
5
207
100
AcDbEntity
8
0
100
AcDbLine
10
-1752.0574186275926
20
448.3642022609726
30
2.8310687127941492e-13
11
-1752.0574186275928
21
432.67997696935845
31
0
0
ARC
5
208
100
AcDbEntity
8
0
100
AcDbCircle
10
-1753.2153059817856
20
431.5220896151655
30
7.0103849975695385e-31
40
1.6375000000000011
210
-3.9252311467101017e-17
220
-1.2619581569854682e-17
230
1
100
AcDbArc
50
-135.00000000000142
51
45.000000000004214
0
LINE
5
209
100
AcDbEntity
8
0
100
AcDbLine
10
-1754.3731933359786
20
430.36420226097255
30
-6.0061808985541753e-17
11
-1767.7416439192066
21
430.36420226097249
31
-2.8310687127941492e-13
0
ARC
5
210
100
AcDbEntity
8
0
100
AcDbCircle
10
-1768.8995312733996
20
431.5220896151655
30
-3.2856364851246244e-30
40
1.6374999999999007
210
-7.8504622934175644e-17
220
2.6632729897243076e-17
230
1
100
AcDbArc
50
135.00000000000563
51
315
0
LINE
5
211
100
AcDbEntity
8
0
100
AcDbLine
10
-1770.0574186275926
20
432.67997696935828
30
-1.2173721129682579e-16
11
-1770.0574186275926
21
448.36420226097255
31
-2.8421709430404007e-13
0
LINE
5
212
100
AcDbEntity
8
0
100
AcDbLine
10
-1770.0574186275926
20
448.36420226097255
30
-2.8421709430404007e-13
11
-1797.4824186275928
21
448.3642022609726
31
-2.8643754035329039e-13
0
LINE
5
213
100
AcDbEntity
8
0
100
AcDbLine
10
-1797.4824186275928
20
448.3642022609726
30
-2.8643754035329039e-13
11
-1797.4824186275928
21
-304.63579773903189
31
0
0
LINE
5
214
100
AcDbEntity
8
0
100
AcDbLine
10
-1797.4824186275928
20
-304.63579773903189
30
0
11
-1328.6340573866955
21
-304.63579773903155
31
2.8421709430403997e-13
0
LINE
5
215
100
AcDbEntity
8
0
100
AcDbLine
10
-1328.6340573866955
20
-304.63579773903155
30
2.8421709430403997e-13
11
-1328.634057386696
21
448.36420226097289
31
2.8421709430404007e-13
0
LINE
5
216
100
AcDbEntity
8
0
100
AcDbLine
10
-1328.634057386696
20
448.36420226097289
30
2.8421709430404007e-13
11
-1357.8000488934485
21
448.36420226097277
31
-2.8421709430404007e-13
0
LINE
5
217
100
AcDbEntity
8
0
100
AcDbLine
10
-1357.8000488934485
20
448.36420226097277
30
-2.8421709430404007e-13
11
-1357.8000488934485
21
432.67997696935856
31
-2.8421709430404007e-13
0
ARC
5
218
100
AcDbEntity
8
0
100
AcDbCircle
10
-1358.9579362476416
20
431.52208961516567
30
7.0874221953450279e-31
40
1.6375000000000011
210
-3.9252311467101565e-17
220
-1.2619581569855227e-17
230
1
100
AcDbArc
50
-135.00000000000142
51
44.999999999997186
0
LINE
5
219
100
AcDbEntity
8
0
100
AcDbLine
10
-1360.1158236018346
20
430.36420226097272
30
-6.0061808985543011e-17
11
-1373.4842741850628
21
430.36420226097277
31
1.1102230246251601e-15
0
ARC
5
220
100
AcDbEntity
8
0
100
AcDbCircle
10
-1374.6421615392558
20
431.5220896151655
30
-5.0806031932935282e-30
40
1.6375000000000515
210
-7.8504622934170269e-17
220
2.6632729897239305e-17
230
1
100
AcDbArc
50
135
51
315.00000000000705
0
LINE
5
221
100
AcDbEntity
8
0
100
AcDbLine
10
-1375.8000488934488
20
432.67997696935851
30
-1.2173721129682268e-16
11
-1375.8000488934488
21
448.36420226097283
31
0
0
LINE
5
222
100
AcDbEntity
8
0
100
AcDbLine
10
-1375.8000488934488
20
448.36420226097283
30
0
11
-1393.6416279601892
21
448.36420226097277
31
-1.1102230246251518e-15
0
LINE
5
223
100
AcDbEntity
8
0
100
AcDbLine
10
-1393.6416279601892
20
448.36420226097277
30
-1.1102230246251518e-15
11
-1393.6416279601895
21
432.67997696935856
31
0
0
ARC
5
224
100
AcDbEntity
8
0
100
AcDbCircle
10
-1394.7995153143822
20
431.5220896151655
30
3.5514148174500629e-30
40
1.6374999999998003
210
-3.9252311467104708e-17
220
-1.2619581569859592e-17
230
1
100
AcDbArc
50
-135.00000000000844
51
45.000000000007041
0
LINE
5
225
100
AcDbEntity
8
0
100
AcDbLine
10
-1395.9574026685752
20
430.36420226097283
30
-6.0061808985545254e-17
11
-1409.325853251803
21
430.36420226097266
31
3.4767978888153292e-30
0
ARC
5
226
100
AcDbEntity
8
0
100
AcDbCircle
10
-1410.4837406059962
20
431.5220896151655
30
-5.9742346874892056e-30
40
1.6375000000000515
210
-7.8504622934170072e-17
220
2.6632729897239878e-17
230
1
100
AcDbArc
50
135
51
315.00000000000983
0
LINE
5
227
100
AcDbEntity
8
0
100
AcDbLine
10
-1411.6416279601892
20
432.67997696935851
30
-1.2173721129682401e-16
11
-1411.641627960189
21
448.36420226097266
31
0
0
LINE
5
228
100
AcDbEntity
8
0
100
AcDbLine
10
-1411.641627960189
20
448.36420226097266
30
0
11
-1429.4832070269294
21
448.36420226097277
31
1.1102230246251613e-15
0
LINE
5
229
100
AcDbEntity
8
0
100
AcDbLine
10
-1429.4832070269294
20
448.36420226097277
30
1.1102230246251613e-15
11
-1429.4832070269294
21
432.67997696935817
31
6.0061808985553056e-17
0
ENDSEC
0
SECTION
2
OBJECTS
0
DICTIONARY
5
C
100
AcDbDictionary
3
ACAD_GROUP
350
D
3
ACAD_MLINESTYLE
350
17
0
DICTIONARY
5
D
100
AcDbDictionary
0
DICTIONARY
5
1A
330
C
100
AcDbDictionary
0
DICTIONARY
5
17
100
AcDbDictionary
0
ENDSEC
0
EOF
