0
SECTION
2
HEADER
9
$INSUNITS
70
4
9
$ACADVER
1
AC1014
9
$HANDSEED
5
FFFF
0
ENDSEC
0
SECTION
2
TABLES
0
TABLE
2
VPORT
5
8
100
AcDbSymbolTable
0
ENDTAB
0
TABLE
2
LTYPE
5
5
100
AcDbSymbolTable
0
LTYPE
5
14
100
AcDbSymbolTableRecord
100
AcDbLinetypeTableRecord
2
BYBLOCK
70
0
0
LTYPE
5
15
100
AcDbSymbolTableRecord
100
AcDbLinetypeTableRecord
2
BYLAYER
70
0
0
ENDTAB
0
TABLE
2
LAYER
5
2
100
AcDbSymbolTable
70
2
0
LAYER
5
50
100
AcDbSymbolTableRecord
100
AcDbLayerTableRecord
2
0
70
0
6
CONTINUOUS
0
ENDTAB
0
TABLE
2
STYLE
5
3
100
AcDbSymbolTable
70
1
0
STYLE
5
11
100
AcDbSymbolTableRecord
100
AcDbTextStyleTableRecord
2
STANDARD
70
0
0
ENDTAB
0
TABLE
2
VIEW
5
6
100
AcDbSymbolTable
70
0
0
ENDTAB
0
TABLE
2
UCS
5
7
100
AcDbSymbolTable
70
0
0
ENDTAB
0
TABLE
2
APPID
5
9
100
AcDbSymbolTable
70
2
0
APPID
5
12
100
AcDbSymbolTableRecord
100
AcDbRegAppTableRecord
2
ACAD
70
0
0
ENDTAB
0
TABLE
2
DIMSTYLE
5
A
100
AcDbSymbolTable
70
1
0
ENDTAB
0
TABLE
2
BLOCK_RECORD
5
1
100
AcDbSymbolTable
70
1
0
BLOCK_RECORD
5
1F
100
AcDbSymbolTableRecord
100
AcDbBlockTableRecord
2
*MODEL_SPACE
0
BLOCK_RECORD
5
1B
100
AcDbSymbolTableRecord
100
AcDbBlockTableRecord
2
*PAPER_SPACE
0
ENDTAB
0
ENDSEC
0
SECTION
2
BLOCKS
0
BLOCK
5
20
100
AcDbEntity
100
AcDbBlockBegin
2
*MODEL_SPACE
0
ENDBLK
5
21
100
AcDbEntity
100
AcDbBlockEnd
0
BLOCK
5
1C
100
AcDbEntity
100
AcDbBlockBegin
2
*PAPER_SPACE
0
ENDBLK
5
1D
100
AcDbEntity
100
AcDbBlockEnd
0
ENDSEC
0
SECTION
2
ENTITIES
0
CIRCLE
5
100
100
AcDbEntity
8
0
100
AcDbCircle
10
3369.828548153374
20
-476.82761771447929
30
0
40
30
210
0
220
0
230
1
0
ARC
5
101
100
AcDbEntity
8
0
100
AcDbCircle
10
2613.9436885030627
20
-242.64949350751874
30
0
40
1.6374999999998572
210
-0
220
0
230
1
100
AcDbArc
50
-88.600000000002481
51
91.400000000029337
0
LINE
5
102
100
AcDbEntity
8
0
100
AcDbLine
10
2613.9836961947876
20
-244.28650469703527
30
0
11
2604.8738015748422
21
-253.85283645829705
31
0
0
ARC
5
103
100
AcDbEntity
8
0
100
AcDbCircle
10
2603.2367903853255
20
-253.89284415002192
30
0
40
1.637500000000103
210
0
220
0
230
1
100
AcDbArc
50
-178.59999999999113
51
1.3999999999964092
0
LINE
5
104
100
AcDbEntity
8
0
100
AcDbLine
10
2601.5997791958084
20
-253.93285184174715
30
0
11
2590.2417045711759
21
-243.11670355229668
31
0
0
LINE
5
105
100
AcDbEntity
8
0
100
AcDbLine
10
2590.2417045711759
20
-243.11670355229668
30
0
11
2577.8285527839344
21
-256.15179705817104
31
0
0
LINE
5
106
100
AcDbEntity
8
0
100
AcDbLine
10
2577.8285527839344
20
-256.15179705817104
30
0
11
2589.1866274085664
21
-266.96794534762125
31
0
0
ARC
5
107
100
AcDbEntity
8
0
100
AcDbCircle
10
2589.2266351002909
20
-268.60495653713792
30
0
40
1.6374999999999853
210
-0
220
0
230
1
100
AcDbArc
50
-88.600000000002566
51
91.399999999981503
0
LINE
5
108
100
AcDbEntity
8
0
100
AcDbLine
10
2589.2666427920158
20
-270.24196772665459
30
0
11
2580.1567481720708
21
-279.80829948791643
31
0
0
ARC
5
109
100
AcDbEntity
8
0
100
AcDbCircle
10
2578.5197369825537
20
-279.84830717964121
30
0
40
1.6375000000001039
210
0
220
0
230
1
100
AcDbArc
50
-178.59999999998877
51
1.3999999999930246
0
LINE
5
110
100
AcDbEntity
8
0
100
AcDbLine
10
2576.882725793037
20
-279.8883148713665
30
0
11
2565.5246511684045
21
-269.07216658191601
31
0
0
LINE
5
111
100
AcDbEntity
8
0
100
AcDbLine
10
2565.5246511684045
20
-269.07216658191601
30
0
11
2553.1114993811625
21
-282.10726008779039
31
0
0
LINE
5
112
100
AcDbEntity
8
0
100
AcDbLine
10
2553.1114993811625
20
-282.10726008779039
30
0
11
2564.469574005795
21
-292.92340837724066
31
0
0
ARC
5
113
100
AcDbEntity
8
0
100
AcDbCircle
10
2564.5095816975199
20
-294.56041956675733
30
0
40
1.6374999999999853
210
-0
220
0
230
1
100
AcDbArc
50
-88.600000000018511
51
91.399999999997419
0
LINE
5
114
100
AcDbEntity
8
0
100
AcDbLine
10
2564.5495893892444
20
-296.197430756274
30
0
11
2555.4396947692985
21
-305.76376251753595
31
0
0
ARC
5
115
100
AcDbEntity
8
0
100
AcDbCircle
10
2553.8026835797818
20
-305.80377020926062
30
0
40
1.6375000000000928
210
0
220
0
230
1
100
AcDbArc
50
-178.60000000000673
51
1.3999999999893795
0
LINE
5
116
100
AcDbEntity
8
0
100
AcDbLine
10
2552.1656723902652
20
-305.8437779009854
30
0
11
2540.8075977656331
21
-295.02762961153542
31
0
0
LINE
5
117
100
AcDbEntity
8
0
100
AcDbLine
10
2540.8075977656331
20
-295.02762961153542
30
0
11
2528.3944459783911
21
-308.0627231174098
31
0
0
LINE
5
118
100
AcDbEntity
8
0
100
AcDbLine
10
2528.3944459783911
20
-308.0627231174098
30
0
11
2539.7525206030236
21
-318.87887140686007
31
0
0
ARC
5
119
100
AcDbEntity
8
0
100
AcDbCircle
10
2539.7925282947481
20
-320.51588259637674
30
0
40
1.6375000000000208
210
-0
220
0
230
1
100
AcDbArc
50
-88.600000000002623
51
91.399999999981503
0
LINE
5
120
100
AcDbEntity
8
0
100
AcDbLine
10
2539.832535986473
20
-322.15289378589347
30
0
11
2530.7226413665276
21
-331.71922554715536
31
0
0
ARC
5
121
100
AcDbEntity
8
0
100
AcDbCircle
10
2529.0856301770109
20
-331.75923323888003
30
0
40
1.6375000000003621
210
0
220
0
230
1
100
AcDbArc
50
-178.60000000002702
51
1.3999999999893795
0
LINE
5
122
100
AcDbEntity
8
0
100
AcDbLine
10
2527.4486189874938
20
-331.79924093060424
30
0
11
2516.0905443628617
21
-320.98309264115477
31
0
0
LINE
5
123
100
AcDbEntity
8
0
100
AcDbLine
10
2516.0905443628617
20
-320.98309264115477
30
0
11
2503.6773925756197
21
-334.01818614702916
31
0
0
LINE
5
124
100
AcDbEntity
8
0
100
AcDbLine
10
2503.6773925756197
20
-334.01818614702916
30
0
11
2515.0354672002522
21
-344.83433443647937
31
0
0
ARC
5
125
100
AcDbEntity
8
0
100
AcDbCircle
10
2515.0754748919771
20
-346.47134562599609
30
0
40
1.6375000000000208
210
-0
220
0
230
1
100
AcDbArc
50
-88.600000000018568
51
91.399999999997362
0
LINE
5
126
100
AcDbEntity
8
0
100
AcDbLine
10
2515.1154825837016
20
-348.10835681551282
30
0
11
2506.0055879637557
21
-357.67468857677466
31
0
0
ARC
5
127
100
AcDbEntity
8
0
100
AcDbCircle
10
2504.368576774239
20
-357.71469626849932
30
0
40
1.6375000000000952
210
0
220
0
230
1
100
AcDbArc
50
-178.60000000000099
51
1.3999999999893795
0
LINE
5
128
100
AcDbEntity
8
0
100
AcDbLine
10
2502.7315655847224
20
-357.75470396022428
30
0
11
2491.3734909600903
21
-346.93855567077412
31
0
0
LINE
5
129
100
AcDbEntity
8
0
100
AcDbLine
10
2491.3734909600903
20
-346.93855567077412
30
0
11
2478.9603391728483
21
-359.97364917664856
31
0
0
LINE
5
130
100
AcDbEntity
8
0
100
AcDbLine
10
2478.9603391728483
20
-359.97364917664856
30
0
11
2490.3184137974808
21
-370.78979746609878
31
0
0
ARC
5
131
100
AcDbEntity
8
0
100
AcDbCircle
10
2490.3584214892053
20
-372.42680865561545
30
0
40
1.6375000000000208
210
-0
220
0
230
1
100
AcDbArc
50
-88.600000000002623
51
91.399999999981503
0
LINE
5
132
100
AcDbEntity
8
0
100
AcDbLine
10
2490.3984291809302
20
-374.06381984513217
30
0
11
2481.2885345609843
21
-383.63015160639395
31
0
0
ARC
5
133
100
AcDbEntity
8
0
100
AcDbCircle
10
2479.6515233714676
20
-383.67015929811873
30
0
40
1.6375000000000952
210
0
220
0
230
1
100
AcDbArc
50
-178.60000000000281
51
1.3999999999932848
0
LINE
5
134
100
AcDbEntity
8
0
100
AcDbLine
10
2478.014512181951
20
-383.71016698984363
30
0
11
2466.6564375573189
21
-372.89401870039347
31
0
0
LINE
5
135
100
AcDbEntity
8
0
100
AcDbLine
10
2466.6564375573189
20
-372.89401870039347
30
0
11
2454.2432857700765
21
-385.92911220626786
31
0
0
LINE
5
136
100
AcDbEntity
8
0
100
AcDbLine
10
2454.2432857700765
20
-385.92911220626786
30
0
11
2465.6013603947094
21
-396.74526049571807
31
0
0
ARC
5
137
100
AcDbEntity
8
0
100
AcDbCircle
10
2465.6413680864343
20
-398.3822716852348
30
0
40
1.6375000000000208
210
-0
220
0
230
1
100
AcDbArc
50
-88.600000000018568
51
91.399999999997362
0
LINE
5
138
100
AcDbEntity
8
0
100
AcDbLine
10
2465.6813757781588
20
-400.01928287475153
30
0
11
2456.5714811582129
21
-409.58561463601325
31
0
0
ARC
5
139
100
AcDbEntity
8
0
100
AcDbCircle
10
2454.9344699686962
20
-409.62562232773803
30
0
40
1.6375000000000952
210
0
220
0
230
1
100
AcDbArc
50
-178.60000000000099
51
1.3999999999932848
0
LINE
5
140
100
AcDbEntity
8
0
100
AcDbLine
10
2453.2974587791796
20
-409.66563001946298
30
0
11
2441.9393841545475
21
-398.84948173001294
31
0
0
LINE
5
141
100
AcDbEntity
8
0
100
AcDbLine
10
2441.9393841545475
20
-398.84948173001294
30
0
11
2429.5262323673051
21
-411.88457523588733
31
0
0
LINE
5
142
100
AcDbEntity
8
0
100
AcDbLine
10
2429.5262323673051
20
-411.88457523588733
30
0
11
2440.884306991938
21
-422.70072352533754
31
0
0
ARC
5
143
100
AcDbEntity
8
0
100
AcDbCircle
10
2440.9243146836625
20
-424.33773471485426
30
0
40
1.6375000000000208
210
-0
220
0
230
1
100
AcDbArc
50
-88.600000000002566
51
91.399999999981475
0
LINE
5
144
100
AcDbEntity
8
0
100
AcDbLine
10
2440.9643223753874
20
-425.97474590437093
30
0
11
2431.8544277554415
21
-435.54107766563266
31
0
0
ARC
5
145
100
AcDbEntity
8
0
100
AcDbCircle
10
2430.2174165659249
20
-435.58108535735744
30
0
40
1.6375000000000952
210
0
220
0
230
1
100
AcDbArc
50
-178.60000000000281
51
1.3999999999932848
0
LINE
5
146
100
AcDbEntity
8
0
100
AcDbLine
10
2428.5804053764082
20
-435.62109304908233
30
0
11
2417.2223307517761
21
-424.80494475963224
31
0
0
LINE
5
147
100
AcDbEntity
8
0
100
AcDbLine
10
2417.2223307517761
20
-424.80494475963224
30
0
11
2404.8091789645337
21
-437.84003826550656
31
0
0
LINE
5
148
100
AcDbEntity
8
0
100
AcDbLine
10
2404.8091789645337
20
-437.84003826550656
30
0
11
2416.1672535891666
21
-448.65618655495678
31
0
0
ARC
5
149
100
AcDbEntity
8
0
100
AcDbCircle
10
2416.2072612808915
20
-450.29319774447345
30
0
40
1.6375000000000848
210
-0
220
0
230
1
100
AcDbArc
50
-88.600000000018611
51
91.399999999997419
0
LINE
5
150
100
AcDbEntity
8
0
100
AcDbLine
10
2416.247268972616
20
-451.93020893399023
30
0
11
2407.1373743526701
21
-461.49654069525189
31
0
0
ARC
5
151
100
AcDbEntity
8
0
100
AcDbCircle
10
2405.5003631631535
20
-461.53654838697673
30
0
40
1.6375000000000952
210
0
220
0
230
1
100
AcDbArc
50
-178.60000000000099
51
1.3999999999953676
0
LINE
5
152
100
AcDbEntity
8
0
100
AcDbLine
10
2403.8633519736368
20
-461.57655607870169
30
0
11
2392.5052773490047
21
-450.76040778925164
31
0
0
LINE
5
153
100
AcDbEntity
8
0
100
AcDbLine
10
2392.5052773490047
20
-450.76040778925164
30
0
11
2380.0921255617623
21
-463.79550129512597
31
0
0
LINE
5
154
100
AcDbEntity
8
0
100
AcDbLine
10
2380.0921255617623
20
-463.79550129512597
30
0
11
2391.4502001863953
21
-474.61164958457624
31
0
0
ARC
5
155
100
AcDbEntity
8
0
100
AcDbCircle
10
2391.4902078781197
20
-476.24866077409297
30
0
40
1.6375000000000071
210
-0
220
0
230
1
100
AcDbArc
50
-88.600000000018511
51
91.399999999981475
0
LINE
5
156
100
AcDbEntity
8
0
100
AcDbLine
10
2391.5302155698441
20
-477.88567196360964
30
0
11
2382.4203209498987
21
-487.45200372487125
31
0
0
ARC
5
157
100
AcDbEntity
8
0
100
AcDbCircle
10
2380.7833097603821
20
-487.49201141659614
30
0
40
1.6375000000000952
210
0
220
0
230
1
100
AcDbArc
50
-178.60000000000281
51
1.3999999999971902
0
LINE
5
158
100
AcDbEntity
8
0
100
AcDbLine
10
2379.1462985708654
20
-487.53201910832104
30
0
11
2367.7882239462333
21
-476.71587081887094
31
0
0
LINE
5
159
100
AcDbEntity
8
0
100
AcDbLine
10
2367.7882239462333
20
-476.71587081887094
30
0
11
2355.3750721589909
21
-489.75096432474538
31
0
0
LINE
5
160
100
AcDbEntity
8
0
100
AcDbLine
10
2355.3750721589909
20
-489.75096432474538
30
0
11
2366.7331467836229
21
-500.56711261419559
31
0
0
ARC
5
161
100
AcDbEntity
8
0
100
AcDbCircle
10
2366.7731544753478
20
-502.20412380371238
30
0
40
1.6374999999999567
210
-0
220
0
230
1
100
AcDbArc
50
-88.59999999998665
51
91.39999999999732
0
LINE
5
162
100
AcDbEntity
8
0
100
AcDbLine
10
2366.8131621670732
20
-503.84113499322899
30
0
11
2357.7032675471273
21
-513.40746675449066
31
0
0
ARC
5
163
100
AcDbEntity
8
0
100
AcDbCircle
10
2356.0662563576107
20
-513.44747444621567
30
0
40
1.6375000000000952
210
0
220
0
230
1
100
AcDbArc
50
-178.60000000000281
51
1.4000000000013559
0
LINE
5
164
100
AcDbEntity
8
0
100
AcDbLine
10
2354.429245168094
20
-513.48748213794056
30
0
11
2343.0711705434614
21
-502.67133384849041
31
0
0
LINE
5
165
100
AcDbEntity
8
0
100
AcDbLine
10
2343.0711705434614
20
-502.67133384849041
30
0
11
2330.6580187562195
21
-515.70642735436479
31
0
0
LINE
5
166
100
AcDbEntity
8
0
100
AcDbLine
10
2330.6580187562195
20
-515.70642735436479
30
0
11
2342.016093380852
21
-526.52257564381489
31
0
0
ARC
5
167
100
AcDbEntity
8
0
100
AcDbCircle
10
2342.0561010725764
20
-528.15958683333167
30
0
40
1.6375000000000208
210
-0
220
0
230
1
100
AcDbArc
50
-88.600000000002566
51
91.399999999981418
0
LINE
5
168
100
AcDbEntity
8
0
100
AcDbLine
10
2342.0961087643013
20
-529.79659802284834
30
0
11
2335.400559199431
21
-536.82761771447952
31
0
0
LINE
5
169
100
AcDbEntity
8
0
100
AcDbLine
10
2335.400559199431
20
-536.82761771447952
30
0
11
3395.5445810007336
21
-536.82761771447929
31
0
0
LINE
5
170
100
AcDbEntity
8
0
100
AcDbLine
10
3395.5445810007336
20
-536.82761771447929
30
0
11
3428.4285546897263
21
-502.29604352384791
31
0
0
ARC
5
171
100
AcDbEntity
8
0
100
AcDbCircle
10
3430.065565879243
20
-502.25603583212268
30
0
40
1.6375000000000919
210
0
220
-0
230
1
100
AcDbArc
50
1.3999999999932848
51
181.40000000000913
0
LINE
5
172
100
AcDbEntity
8
0
100
AcDbLine
10
3431.7025770687596
20
-502.2160281403979
30
0
11
3449.5781984463292
21
-519.23875232346938
31
0
0
LINE
5
173
100
AcDbEntity
8
0
100
AcDbLine
10
3449.5781984463292
20
-519.23875232346938
30
0
11
4044.6507600548093
21
108.5491469074082
31
0
0
LINE
5
174
100
AcDbEntity
8
0
100
AcDbLine
10
4044.6507600548093
20
108.5491469074082
30
0
11
4026.5464635188641
21
125.78963550078814
31
0
0
LINE
5
175
100
AcDbEntity
8
0
100
AcDbLine
10
4026.5464635188641
20
125.78963550078814
30
0
11
3739.4044799425433
21
125.78963550078888
31
0
0
ARC
5
176
100
AcDbEntity
8
0
100
AcDbCircle
10
3739.4044799425546
20
95.789635500800472
30
0
40
29.9999999999884
210
0
220
0
230
1
100
AcDbArc
50
90.000000000021714
51
136.40000000003067
0
LINE
5
177
100
AcDbEntity
8
0
100
AcDbLine
10
3717.6793240994239
20
116.47822181285483
30
0
11
3713.5581948891599
21
112.15060981501534
31
0
0
SPLINE
5
178
100
AcDbEntity
8
0
100
AcDbSpline
70
0
71
3
72
80
73
76
74
0
42
0.000000001
43
0.0000000001
44
0.0000000001
40
0
40
0
40
0
40
0
40
0.25000023970319013
40
0.25000023970319013
40
0.25000023970319013
40
0.28125023998200399
40
0.28125023998200399
40
0.28125023998200399
40
0.31250021801199024
40
0.31250021801199024
40
0.31250021801199024
40
0.34375016909750444
40
0.34375016909750444
40
0.34375016909750444
40
0.35937513306870644
40
0.35937513306870644
40
0.35937513306870644
40
0.37500008854294264
40
0.37500008854294264
40
0.37500008854294264
40
0.39062503493326972
40
0.39062503493326972
40
0.39062503493326972
40
0.39843750586519711
40
0.39843750586519711
40
0.39843750586519711
40
0.40625000381050658
40
0.40625000381050658
40
0.40625000381050658
40
0.42187510348263874
40
0.42187510348263874
40
0.42187510348263874
40
0.437500318537966
40
0.437500318537966
40
0.437500318537966
40
0.45312562138416179
40
0.45312562138416179
40
0.45312562138416179
40
0.46875098442734869
40
0.46875098442734869
40
0.46875098442734869
40
0.50000178072435875
40
0.50000178072435875
40
0.50000178072435875
40
0.53125248666548841
40
0.53125248666548841
40
0.53125248666548841
40
0.56250288149361272
40
0.56250288149361272
40
0.56250288149361272
40
0.59375274447358295
40
0.59375274447358295
40
0.59375274447358295
40
0.62500185490781657
40
0.62500185490781657
40
0.62500185490781657
40
0.65624999215187818
40
0.65624999215187818
40
0.65624999215187818
40
0.68749789188017574
40
0.68749789188017574
40
0.68749789188017574
40
0.71874658764003085
40
0.71874658764003085
40
0.71874658764003085
40
0.74999595677821929
40
0.74999595677821929
40
0.74999595677821929
40
0.78124587306018389
40
0.78124587306018389
40
0.78124587306018389
40
0.81249621022926188
40
0.81249621022926188
40
0.81249621022926188
40
1
40
1
40
1
40
1
10
3713.5581948891599
20
112.15060981501516
30
0
10
3653.604387538016
20
33.385489493842577
30
0
10
3585.2102544405343
20
-51.064248542227375
30
0
10
3508.3004261737256
20
-102.30223440378772
30
0
10
3498.6867067723579
20
-108.7069765526777
30
0
10
3488.9399294392551
20
-114.59278469585112
30
0
10
3479.0599467694374
20
-119.88368996262908
30
0
10
3469.1799711337972
20
-125.17459146248102
30
0
10
3459.166790351132
20
-129.87059094064796
30
0
10
3449.0202561805409
20
-133.89571024163484
30
0
10
3438.8737307585325
20
-137.92082607206845
30
0
10
3428.5938521785729
20
-141.27506288981442
30
0
10
3418.1804749393154
20
-143.88247465475504
30
0
10
3412.9737901756603
20
-145.18617957172592
30
0
10
3407.7337307953489
20
-146.30317848889447
30
0
10
3402.4602754904158
20
-147.22394197846728
30
0
10
3397.186823053225
20
-148.14470496732241
30
0
10
3391.8799747277299
20
-148.86923274220132
30
0
10
3386.539723578037
20
-149.38816261593939
30
0
10
3381.1994755330152
20
-149.90709218798625
30
0
10
3375.8258247026524
20
-150.22042409837735
30
0
10
3370.418709268713
20
-150.31815899391506
30
0
10
3367.7151523349512
20
-150.36702642752726
30
0
10
3365.0032269638659
20
-150.36199456902312
30
0
10
3362.2829990649734
20
-150.30257216364234
30
0
10
3359.5627617602786
20
-150.24314955279519
30
0
10
3356.8342231834358
20
-150.12933617117909
30
0
10
3354.0977072176684
20
-149.96373520127838
30
0
10
3348.6246389341541
20
-149.63253106162762
30
0
10
3343.1196606913677
20
-149.09417395486091
30
0
10
3337.5851192582186
20
-148.36665646934082
30
0
10
3332.0505369553748
20
-147.63913361148431
30
0
10
3326.4863910228669
20
-146.7224475609799
30
0
10
3320.8950556311443
20
-145.63490978761808
30
0
10
3315.30368882429
20
-144.5473659038837
30
0
10
3309.6851322498737
20
-143.28896835566613
30
0
10
3304.0417523590322
20
-141.8779413079036
30
0
10
3298.3983507268845
20
-140.46690882411312
30
0
10
3292.7301255842581
20
-138.90324564333002
30
0
10
3287.0394454644711
20
-137.20519718199074
30
0
10
3275.6580596545296
20
-133.80909262934142
30
0
10
3264.1868536704369
20
-129.87544533019434
30
0
10
3252.6447648983644
20
-125.55016659874386
30
0
10
3241.1027094981009
20
-121.2249003730345
30
0
10
3229.4897716303121
20
-116.50800429241966
30
0
10
3217.8249021135412
20
-111.5453872522248
30
0
10
3206.160148725111
20
-106.58281961682437
30
0
10
3194.4434646326458
20
-101.37453522715788
30
0
10
3182.6937452907168
20
-96.066428356780946
30
0
10
3170.9442259163907
20
-90.758411824681531
30
0
10
3159.1616723256534
20
-85.350575521985391
30
0
10
3147.3651826106079
20
-79.98885912675965
30
0
10
3135.5689769735454
20
-74.627271850078102
30
0
10
3123.7588358041235
20
-69.311801574486523
30
0
10
3111.9531022539286
20
-64.18824877650836
30
0
10
3100.1477363693639
20
-59.06485554119164
30
0
10
3088.346777692364
20
-54.133367133284757
30
0
10
3076.5713924013999
20
-49.540166520374569
30
0
10
3064.796096614637
20
-44.947000820187178
30
0
10
3053.0466846251229
20
-40.692246094042446
30
0
10
3041.2777189078565
20
-36.908953329110979
30
0
10
3029.5084533794602
20
-33.125564185848219
30
0
10
3017.719590945519
20
-29.813644097722332
30
0
10
3005.8621421787802
20
-27.10550629462205
30
0
10
2994.0044378958064
20
-24.397310133843906
30
0
10
2982.0781444645968
20
-22.292921925362897
30
0
10
2970.0351884587562
20
-20.924838624275086
30
0
10
2957.9920215933494
20
-19.556731369479284
30
0
10
2945.8321881956426
20
-18.92495444874152
30
0
10
2933.5073709722556
20
-19.161960925171439
30
0
10
2921.1823877530069
20
-19.398970593705002
30
0
10
2908.6924163943722
20
-20.504786704977867
30
0
10
2895.9892029437447
20
-22.611883804412201
30
0
10
2819.7692040563038
20
-35.254585526997289
30
0
10
2735.8728850932175
20
-83.941766553976009
30
0
10
2633.8715739608983
20
-197.30082722275449
30
0
0
LINE
5
179
100
AcDbEntity
8
0
100
AcDbLine
10
2633.8715739608979
20
-197.30082722275449
30
0
11
2645.2296485855313
21
-208.11697551220504
31
0
0
ARC
5
180
100
AcDbEntity
8
0
100
AcDbCircle
10
2645.2696562772558
20
-209.75398670172171
30
0
40
1.6374999999999853
210
-0
220
0
230
1
100
AcDbArc
50
-88.600000000002566
51
91.399999999981503
0
LINE
5
181
100
AcDbEntity
8
0
100
AcDbLine
10
2645.3096639689807
20
-211.39099789123838
30
0
11
2629.5908549776141
21
-227.89737342867696
31
0
0
ARC
5
182
100
AcDbEntity
8
0
100
AcDbCircle
10
2627.9538437880974
20
-227.93738112040219
30
0
40
1.6375000000001074
210
0
220
0
230
1
100
AcDbArc
50
-178.59999999998382
51
1.4000000000091668
0
LINE
5
183
100
AcDbEntity
8
0
100
AcDbLine
10
2626.3168325985807
20
-227.97738881212763
30
0
11
2614.9587579739473
21
-217.1612405226773
31
0
0
LINE
5
184
100
AcDbEntity
8
0
100
AcDbLine
10
2614.9587579739473
20
-217.1612405226773
30
0
11
2602.5456061867053
21
-230.19633402855169
31
0
0
LINE
5
185
100
AcDbEntity
8
0
100
AcDbLine
10
2602.5456061867053
20
-230.19633402855169
30
0
11
2613.9036808113369
21
-241.01248231800218
31
0
0
ENDSEC
0
SECTION
2
OBJECTS
0
DICTIONARY
5
C
100
AcDbDictionary
3
ACAD_GROUP
350
D
3
ACAD_MLINESTYLE
350
17
0
DICTIONARY
5
D
100
AcDbDictionary
0
DICTIONARY
5
1A
330
C
100
AcDbDictionary
0
DICTIONARY
5
17
100
AcDbDictionary
0
ENDSEC
0
EOF
